 <svg version="1.0" xmlns="http://www.w3.org/2000/svg" width="700.000000pt" height="278.000000pt" viewBox="0 0 700.000000 278.000000" preserveAspectRatio="xMidYMid meet">
<metadata>
Created by potrace 1.12, written by Peter Selinger 2001-2015
</metadata>
<g transform="translate(0.000000,278.000000) scale(0.100000,-0.100000)" fill="#000000" stroke="none">
<path d="M5642 2057 l-32 -33 345 -344 c190 -189 345 -347 345 -350 0 -4 -155
-161 -345 -350 l-345 -344 35 -36 35 -36 380 380 c209 208 380 382 380 385 0
8 -753 761 -761 761 -3 0 -19 -15 -37 -33z"></path>
<path d="M863 1701 c-205 -207 -373 -379 -373 -382 0 -7 753 -759 760 -759 3
0 20 13 38 28 l33 28 -345 344 c-190 189 -346 349 -346 355 0 6 155 166 345
355 l345 344 -32 33 c-18 18 -37 32 -42 31 -6 0 -179 -170 -383 -377z"></path>
<path d="M1852 1930 c-71 -32 -111 -69 -139 -129 -36 -79 -40 -135 -14 -214
40 -118 115 -172 241 -172 77 0 138 22 170 60 12 14 10 20 -13 43 l-27 26 -29
-22 c-23 -17 -44 -22 -88 -22 -108 0 -163 62 -163 183 0 55 4 70 29 104 53 74
124 91 206 51 l46 -23 19 25 c27 34 25 47 -9 64 -93 48 -161 56 -229 26z m158
-20 c52 -14 78 -36 63 -51 -9 -9 -21 -8 -53 5 -96 38 -186 3 -234 -91 -20 -40
-21 -139 -2 -184 15 -36 56 -79 93 -98 28 -14 111 -14 152 0 50 17 63 -4 20
-30 -41 -25 -161 -29 -212 -7 -45 19 -93 73 -112 125 -19 56 -19 151 1 199 45
109 166 165 284 132z"></path>
<path d="M2925 1938 c-80 -28 -145 -79 -172 -136 -25 -52 -25 -193 0 -245 64
-133 245 -187 374 -111 98 57 127 111 127 234 -1 89 -16 132 -67 188 -58 63
-184 96 -262 70z m182 -42 c173 -81 173 -348 1 -437 -52 -27 -174 -26 -227 0
-46 24 -108 91 -118 128 -16 56 -8 166 15 210 57 109 208 155 329 99z"></path>
<path d="M2914 1861 c-136 -62 -138 -297 -3 -366 38 -20 126 -19 169 3 19 9
48 36 64 60 27 38 30 51 30 115 0 58 -4 81 -24 116 -46 82 -147 112 -236 72z
m149 -16 c48 -20 73 -55 88 -122 18 -79 2 -136 -52 -185 -39 -35 -46 -38 -103
-38 -77 0 -116 22 -145 82 -43 90 -17 205 58 255 40 27 101 30 154 8z"></path>
<path d="M3915 1929 c-3 -8 -4 -127 -3 -264 l3 -250 125 0 c98 0 135 4 174 19
56 21 136 90 136 115 0 9 5 22 12 29 16 16 16 160 -1 202 -18 46 -76 107 -125
132 -52 26 -312 40 -321 17z m264 -24 c64 -17 117 -57 148 -111 18 -31 23 -55
23 -117 0 -116 -38 -178 -134 -217 -44 -18 -69 -20 -166 -18 l-115 3 -3 224
c-2 156 1 228 9 237 16 19 167 18 238 -1z"></path>
<path d="M4030 1870 c0 -6 27 -10 60 -10 110 0 169 -47 178 -141 6 -59 22 -65
22 -9 0 66 -49 135 -113 159 -36 14 -147 14 -147 1z"></path>
<path d="M3990 1676 c0 -111 3 -156 13 -164 9 -8 13 12 15 91 3 120 -6 227
-19 227 -5 0 -9 -67 -9 -154z"></path>
<path d="M4270 1630 c0 -33 -27 -77 -63 -104 -29 -22 -44 -26 -101 -26 -50 0
-67 -3 -63 -12 2 -7 13 -13 25 -12 95 3 112 6 143 27 53 35 105 147 69 147 -5
0 -10 -9 -10 -20z"></path>
<path d="M5035 1927 c-3 -7 -4 -125 -3 -262 l3 -250 163 -3 163 -3 -3 43 -3
43 -97 3 c-63 2 -98 -1 -98 -8 0 -11 0 -11 95 -13 58 -2 70 -5 73 -19 3 -16
-8 -18 -125 -18 -87 0 -133 4 -141 12 -9 9 -12 74 -12 230 0 252 -7 238 109
238 41 0 71 4 71 10 0 16 -189 13 -195 -3z"></path>
<path d="M5250 1931 c0 -5 17 -11 38 -13 25 -2 37 -8 37 -18 0 -12 -17 -16
-82 -18 -47 -2 -83 -7 -83 -13 0 -6 38 -9 98 -7 l97 3 0 35 0 35 -52 3 c-31 2
-53 -1 -53 -7z"></path>
<path d="M5115 1820 c-8 -34 2 -90 16 -90 5 0 9 27 9 60 0 64 -14 80 -25 30z"></path>
<path d="M5150 1711 c0 -6 30 -11 68 -13 52 -2 67 -6 67 -18 0 -11 -15 -16
-62 -18 -35 -2 -63 -7 -63 -13 0 -6 31 -9 78 -7 l77 3 0 35 0 35 -82 3 c-50 2
-83 -1 -83 -7z"></path>
<path d="M5115 1600 c-8 -34 2 -90 16 -90 5 0 9 27 9 60 0 64 -14 80 -25 30z"></path>
<path d="M3913 1222 c-180 -2 -193 -4 -203 -22 -8 -14 -8 -26 0 -40 9 -17 21
-20 75 -20 78 0 87 18 13 22 -39 2 -53 7 -53 18 0 13 26 15 175 15 149 0 175
-2 175 -15 0 -11 -14 -16 -52 -18 -29 -2 -53 -8 -53 -13 0 -6 27 -9 68 -7 l67
3 0 39 c0 22 -4 40 -10 40 -5 1 -97 0 -202 -2z"></path>
<path d="M2971 1206 c-9 -10 -11 -83 -9 -258 l3 -243 53 0 c28 0 52 3 52 8 0
4 0 120 0 257 l0 250 -44 0 c-25 0 -48 -6 -55 -14z m74 -246 l0 -235 -25 0
-25 0 -3 225 c-1 123 0 231 3 238 3 7 15 12 27 10 l23 -3 0 -235z"></path>
<path d="M3860 915 l0 -215 55 0 55 0 0 215 c0 137 -4 215 -10 215 -6 0 -10
-71 -10 -194 0 -159 -3 -196 -15 -206 -8 -7 -22 -10 -30 -6 -13 4 -15 32 -15
168 0 169 -6 238 -21 238 -5 0 -9 -97 -9 -215z"></path>
</g>
</svg>